<svg width="84" height="80" viewBox="0 0 84 80" fill="none" xmlns="http://www.w3.org/2000/svg">
<path d="M37.9592 2.46388C39.3255 -0.821289 43.9793 -0.821288 45.3457 2.46388L53.9393 23.1254C54.5154 24.5104 55.8178 25.4567 57.313 25.5765L79.6189 27.3648C83.1655 27.6491 84.6036 32.0751 81.9014 34.3898L64.9067 48.9476C63.7675 49.9234 63.2701 51.4545 63.6181 52.9136L68.8103 74.6803C69.6358 78.1412 65.8708 80.8767 62.8344 79.022L43.7375 67.3577C42.4574 66.5758 40.8475 66.5758 39.5674 67.3577L20.4705 79.022C17.4341 80.8767 13.6691 78.1412 14.4946 74.6803L19.6868 52.9136C20.0348 51.4545 19.5373 49.9234 18.3982 48.9476L1.40343 34.3898C-1.29872 32.0751 0.13939 27.6491 3.68601 27.3648L25.9919 25.5765C27.4871 25.4567 28.7895 24.5104 29.3655 23.1254L37.9592 2.46388Z" fill="#FFD700"/>
</svg>
