<svg width="94" height="90" viewBox="0 0 94 90" fill="none" xmlns="http://www.w3.org/2000/svg">
<g filter="url(#filter0_f_16_2)">
<path d="M42.9592 7.46388C44.3255 4.17871 48.9793 4.17871 50.3457 7.46388L58.9393 28.1254C59.5154 29.5104 60.8178 30.4567 62.313 30.5765L84.6189 32.3648C88.1655 32.6491 89.6036 37.0751 86.9014 39.3898L69.9067 53.9476C68.7676 54.9234 68.2701 56.4545 68.6181 57.9136L73.8103 79.6803C74.6358 83.1412 70.8708 85.8767 67.8344 84.022L48.7375 72.3577C47.4574 71.5758 45.8475 71.5758 44.5674 72.3577L25.4705 84.022C22.4341 85.8767 18.6691 83.1412 19.4946 79.6803L24.6868 57.9136C25.0348 56.4545 24.5373 54.9234 23.3982 53.9476L6.40343 39.3898C3.70128 37.0751 5.13939 32.6491 8.68601 32.3648L30.9919 30.5765C32.4871 30.4567 33.7895 29.5104 34.3655 28.1254L42.9592 7.46388Z" fill="#FFD700"/>
</g>
<defs>
<filter id="filter0_f_16_2" x="0" y="0" width="93.3049" height="89.6208" filterUnits="userSpaceOnUse" color-interpolation-filters="sRGB">
<feFlood flood-opacity="0" result="BackgroundImageFix"/>
<feBlend mode="normal" in="SourceGraphic" in2="BackgroundImageFix" result="shape"/>
<feGaussianBlur stdDeviation="2.5" result="effect1_foregroundBlur_16_2"/>
</filter>
</defs>
</svg>
